Patient4_TMGait_0pt4_01_right_17_GRF.mot
version=1
nRows=58
nColumns=19
inDegrees=no
endheader
time	F1x	F1y	F1z	M1x	M1y	M1z	F2x	F2y	F2z	M2x	M2y	M2z	EC1x	EC1y	EC1z	EC2x	EC2y	EC2z
21.95	10.0333	663.5587	63.3604	-148.7978	-54.0556	628.7393	-20.4679	-16.7435	-3.2756	-2.5531	6.2525	-16.5724	-0.0592	0.0182	-0.0073	-0.0462	0.0165	0.9585
21.9635	8.4115	651.5809	60.79	-145.3486	-51.6007	615.0383	-13.625	-10.5554	-2.2735	-1.4271	4.2073	-10.4688	-0.0592	0.0182	-0.0073	-0.0462	0.0165	0.9585
21.977	7.4031	638.9843	58.4535	-141.6998	-49.2205	600.4521	-7.8131	-5.3048	-1.4086	-0.47094	2.4537	-5.2858	-0.0592	0.0182	-0.0073	-0.0462	0.0165	0.9585
21.9905	7.1186	626.9983	56.4584	-138.2015	-47.0169	586.1895	-3.3732	-1.2999	-0.73936	0.25981	1.106	-1.3293	-0.0592	0.0182	-0.0073	-0.0462	0.0165	0.9585
22.004	7.5295	616.7587	54.8048	-135.1779	-45.0103	573.3217	-0.29766	1.4777	-0.27787	0.76856	0.17833	1.4153	-0.0592	0.0182	-0.0073	-0.0462	0.0165	0.9585
22.0175	8.5236	609.1659	53.4339	-132.886	-43.1785	562.6789	1.603	3.2058	0.0061967	1.087	-0.38835	3.1172	-0.0592	0.0182	-0.0073	-0.0462	0.0165	0.9585
22.031	9.9763	604.7842	52.2436	-131.4866	-41.4535	554.7674	2.5946	4.1156	0.14559	1.2552	-0.66765	4.0059	-0.0592	0.0182	-0.0073	-0.0462	0.0165	0.9585
22.0445	11.7651	603.8051	51.1457	-131.0302	-39.7731	549.7614	2.9486	4.4469	0.1855	1.3153	-0.74669	4.3229	-0.0592	0.0182	-0.0073	-0.0462	0.0165	0.9585
22.058	13.7926	606.0482	50.0601	-131.4584	-38.0704	547.5071	2.9082	4.3927	0.15703	1.2975	-0.69609	4.2564	-0.0592	0.0182	-0.0073	-0.0462	0.0165	0.9585
22.0715	15.9958	610.9878	48.9608	-132.6075	-36.3209	547.5573	2.6518	4.0879	0.09405	1.2188	-0.57555	3.9411	-0.0592	0.0182	-0.0073	-0.0462	0.0165	0.9585
22.085	18.309	617.8273	47.8427	-134.2328	-34.5219	549.2499	2.3164	3.6188	0.016059	1.0869	-0.42688	3.4615	-0.0592	0.0182	-0.0073	-0.0462	0.0165	0.9585
22.0985	20.6565	625.6209	46.7696	-136.0456	-32.7424	551.8081	1.9939	3.0408	-0.059105	0.90476	-0.28442	2.8745	-0.0592	0.0182	-0.0073	-0.0462	0.0165	0.9585
22.112	22.9717	633.4253	45.8269	-137.7635	-31.0713	554.4575	1.7215	2.3847	-0.11677	0.67422	-0.16752	2.2145	-0.0592	0.0182	-0.0073	-0.0462	0.0165	0.9585
22.1255	25.2142	640.439	45.1487	-139.1587	-29.6356	556.5563	1.5202	1.6745	-0.14044	0.40085	-0.097768	1.5018	-0.0592	0.0182	-0.0073	-0.0462	0.0165	0.9585
22.139	27.3782	646.1042	44.8586	-140.0996	-28.5459	557.6642	1.3941	0.9678	-0.11589	0.10637	-0.096759	0.79273	-0.0592	0.0182	-0.0073	-0.0462	0.0165	0.9585
22.1525	29.4949	650.2077	45.0698	-140.5809	-27.8998	557.6317	1.3402	0.34895	-0.027317	-0.16715	-0.18767	0.16368	-0.0592	0.0182	-0.0073	-0.0462	0.0165	0.9585
22.166	31.6217	652.8887	45.8269	-140.7374	-27.7279	556.6085	1.3465	-0.035543	0.13249	-0.34305	-0.37817	-0.23657	-0.0592	0.0182	-0.0073	-0.0462	0.0165	0.9585
22.1795	33.8139	654.5971	47.1379	-140.8395	-28.033	555.0374	1.4115	0.070305	0.36418	-0.29762	-0.66849	-0.13918	-0.0592	0.0182	-0.0073	-0.0462	0.0165	0.9585
22.193	36.1101	656.0448	48.9305	-141.2811	-28.7492	553.6128	1.5414	1.0296	0.66462	0.14128	-1.053	0.82336	-0.0592	0.0182	-0.0073	-0.0462	0.0165	0.9585
22.2065	38.5083	658.1073	51.0922	-142.5425	-29.7853	553.2158	1.7231	3.3078	1.0159	1.1932	-1.5059	3.1255	-0.0592	0.0182	-0.0073	-0.0462	0.0165	0.9585
22.22	40.9276	661.6247	53.4208	-145.1155	-30.987	554.7443	1.9522	7.4449	1.3698	3.1088	-1.9736	7.3119	-0.0592	0.0182	-0.0073	-0.0462	0.0165	0.9585
22.2335	43.2031	667.1025	55.6217	-149.3814	-32.1404	558.8281	2.2073	13.9691	1.6367	6.1291	-2.3563	13.9127	-0.0592	0.0182	-0.0073	-0.0462	0.0165	0.9585
22.247	45.091	674.319	57.2289	-155.4368	-32.903	565.4444	2.4342	23.22	1.6809	10.4098	-2.4924	23.2661	-0.0592	0.0182	-0.0073	-0.0462	0.0165	0.9585
22.2605	46.2558	681.8488	57.6149	-162.8624	-32.8253	573.4358	2.5223	35.1493	1.3012	15.9287	-2.1256	35.3102	-0.0592	0.0182	-0.0073	-0.0462	0.0165	0.9585
22.274	46.1967	686.7814	56.1061	-170.5443	-31.4916	580.1855	2.1916	49.171	0.33412	22.4126	-0.97281	49.4404	-0.0592	0.0182	-0.0073	-0.0462	0.0165	0.9585
22.2875	44.5739	685.457	52.4348	-176.9152	-28.8174	582.2356	1.1772	64.1364	-1.2296	29.3377	1.0811	64.4745	-0.0592	0.0182	-0.0073	-0.0462	0.0165	0.9585
22.301	41.4913	675.8785	47.0678	-180.9104	-25.2383	577.5447	-0.65896	78.9034	-3.1502	36.1834	3.848	79.2494	-0.0592	0.0182	-0.0073	-0.0462	0.0165	0.9585
22.3145	37.4486	659.231	40.5877	-182.6571	-21.1063	566.8533	-3.0881	92.8108	-5.2986	42.6401	7.096	93.0789	-0.0592	0.0182	-0.0073	-0.0462	0.0165	0.9585
22.328	33.1286	638.6276	33.7343	-183.0438	-16.812	552.6504	-5.7968	105.5646	-7.483	48.5696	10.4863	105.6468	-0.0592	0.0182	-0.0073	-0.0462	0.0165	0.9585
22.3415	29.0912	617.1235	27.16	-183.0065	-12.6956	537.4613	-8.4705	117.0271	-9.6155	53.9049	13.7862	116.7985	-0.0592	0.0182	-0.0073	-0.0462	0.0165	0.9585
22.355	25.6377	596.6684	21.3563	-183.1493	-9.0587	522.9354	-10.8623	127.244	-11.5993	58.6638	16.7882	126.5686	-0.0592	0.0182	-0.0073	-0.0462	0.0165	0.9585
22.3685	22.8393	577.7722	16.4998	-183.6288	-6.0167	509.5048	-12.8237	136.5103	-13.4782	62.9786	19.4635	135.2501	-0.0592	0.0182	-0.0073	-0.0462	0.0165	0.9585
22.382	20.5985	559.6955	12.5405	-184.1988	-3.553	496.5429	-14.2814	145.4366	-15.3292	67.131	21.8501	143.4359	-0.0592	0.0182	-0.0073	-0.0462	0.0165	0.9585
22.3955	18.6971	541.0162	9.1596	-184.3949	-1.4563	482.8177	-15.2251	154.9237	-17.3293	71.5316	24.1055	152.0091	-0.0592	0.0182	-0.0073	-0.0462	0.0165	0.9585
22.409	16.8107	520.3506	6.036	-183.7596	0.44154	467.1337	-15.6478	165.9652	-19.6253	76.6383	26.3648	161.9286	-0.0592	0.0182	-0.0073	-0.0462	0.0165	0.9585
22.4225	14.6046	496.9385	2.8941	-182.0328	2.2647	448.8179	-15.6097	179.4524	-22.3332	82.8631	28.763	174.0535	-0.0592	0.0182	-0.0073	-0.0462	0.0165	0.9585
22.436	11.8534	470.9074	-0.31243	-179.2197	3.971	427.9588	-15.2342	196.0058	-25.4791	90.4958	31.3815	188.9709	-0.0592	0.0182	-0.0073	-0.0462	0.0165	0.9585
22.4495	8.5169	443.1732	-3.5516	-175.5525	5.5177	405.292	-14.6401	215.8838	-29.0121	99.6582	34.2257	206.9062	-0.0592	0.0182	-0.0073	-0.0462	0.0165	0.9585
22.463	4.75	415.0847	-6.6883	-171.3639	6.8264	381.9049	-13.91	238.9399	-32.8116	110.2841	37.2173	227.6905	-0.0592	0.0182	-0.0073	-0.0462	0.0165	0.9585
22.4765	0.83092	387.9363	-9.6041	-166.9362	7.8741	358.8395	-13.0776	264.6502	-36.7198	122.1345	40.2202	250.7847	-0.0592	0.0182	-0.0073	-0.0462	0.0165	0.9585
22.49	-2.9457	362.4938	-12.1654	-162.3708	8.6182	336.7215	-12.1321	292.22	-40.5806	134.8419	43.0813	275.4066	-0.0592	0.0182	-0.0073	-0.0462	0.0165	0.9585
22.5035	-6.3229	338.8395	-14.3167	-157.5762	9.0659	315.6444	-11.0163	320.6807	-44.2434	147.9607	45.6376	300.6185	-0.0592	0.0182	-0.0073	-0.0462	0.0165	0.9585
22.517	-9.0833	316.5783	-16.0521	-152.3517	9.2615	295.3552	-9.6864	349.002	-47.5895	161.0183	47.7634	325.4426	-0.0592	0.0182	-0.0073	-0.0462	0.0165	0.9585
22.5305	-11.0496	295.134	-17.435	-146.489	9.3143	275.4619	-8.1176	376.2249	-50.5123	173.571	49.3548	348.9811	-0.0592	0.0182	-0.0073	-0.0462	0.0165	0.9585
22.544	-12.1376	274.0014	-18.5258	-139.8501	9.3187	255.6343	-6.2878	401.5362	-52.9377	185.2422	50.3381	370.4838	-0.0592	0.0182	-0.0073	-0.0462	0.0165	0.9585
22.5575	-12.4188	252.9099	-19.349	-132.4143	9.314	235.7421	-4.2413	424.3625	-54.8121	195.7656	50.6896	389.4443	-0.0592	0.0182	-0.0073	-0.0462	0.0165	0.9585
22.571	-12.1162	231.7936	-19.8759	-124.2663	9.2662	215.8228	-2.0832	444.4137	-56.1149	205.0056	50.4525	405.619	-0.0592	0.0182	-0.0073	-0.0462	0.0165	0.9585
22.5845	-11.4914	210.7347	-20.0848	-115.5745	9.1266	196.0343	0.067766	461.677	-56.8588	212.957	49.7086	419.0304	-0.0592	0.0182	-0.0073	-0.0462	0.0165	0.9585
22.598	-10.7199	189.9438	-19.9987	-106.5814	8.8835	176.6064	2.1293	476.394	-57.0926	219.735	48.5476	429.9349	-0.0592	0.0182	-0.0073	-0.0462	0.0165	0.9585
22.6115	-9.9105	169.8107	-19.6759	-97.5991	8.5535	157.9058	4.0444	488.9772	-56.8982	225.5337	47.0764	438.7394	-0.0592	0.0182	-0.0073	-0.0462	0.0165	0.9585
22.625	-9.1005	150.88	-19.1884	-88.9897	8.1809	140.3974	5.7542	499.8883	-56.3877	230.5673	45.4311	445.89	-0.0592	0.0182	-0.0073	-0.0462	0.0165	0.9585
22.6385	-8.29	133.8502	-18.5947	-81.1536	7.8035	124.6471	7.2235	509.5044	-55.6638	235.0105	43.7293	451.7472	-0.0592	0.0182	-0.0073	-0.0462	0.0165	0.9585
22.652	-7.4687	119.5108	-17.955	-74.5047	7.467	111.2817	8.4306	518.0644	-54.7991	238.9733	42.0526	456.5499	-0.0592	0.0182	-0.0073	-0.0462	0.0165	0.9585
22.6655	-6.6139	108.5982	-17.3044	-69.4123	7.2088	100.859	9.3832	525.6645	-53.8295	242.5014	40.4308	460.4088	-0.0592	0.0182	-0.0073	-0.0462	0.0165	0.9585
22.679	-5.719	101.6695	-16.6673	-66.1465	7.0541	93.7864	10.1159	532.2835	-52.7785	245.5869	38.8653	463.3266	-0.0592	0.0182	-0.0073	-0.0462	0.0165	0.9585
22.6925	-4.7728	98.9281	-16.0294	-64.8065	6.9928	90.1908	10.6622	537.8238	-51.6641	248.1856	37.3514	465.2374	-0.0592	0.0182	-0.0073	-0.0462	0.0165	0.9585
22.706	-3.7601	100.1195	-15.3787	-65.2778	7.0111	89.8243	11.0529	542.1856	-50.5081	250.2473	35.8899	466.0754	-0.0592	0.0182	-0.0073	-0.0462	0.0165	0.9585
22.7195	-2.6883	104.5353	-14.6993	-67.2363	7.0789	92.0766	11.3304	545.3157	-49.3357	251.742	34.4849	465.8139	-0.0592	0.0182	-0.0073	-0.0462	0.0165	0.9585
